<!--<?xml version="1.0" encoding="UTF-8" standalone="no"?>-->
<svg xmlns:rdf="http://www.w3.org/1999/02/22-rdf-syntax-ns#" xmlns="http://www.w3.org/2000/svg" height="440" width="440" version="1.1" xmlns:cc="http://creativecommons.org/ns#" xmlns:dc="http://purl.org/dc/elements/1.1/" viewBox="0 0 440 439.99996">
<g transform="translate(-41 34.4)" fill="#001e22">
<path d="m-152 391c-0.206 0.316 0.141-0.025 0 0"/>
<path d="m-143 405c-0.0175 0.611 0.545 0.0838 0 0"/>
<path d="m235 259c-1.21-0.075-2.4 0.545-3.67 0.478-1.24-0.0663-2.58-0.451-3.79-0.759-5.14-1.31-9.97-2.96-15.4-3.28-1.83-0.108-3.67-0.26-5.5-0.281-2.27-0.0275-0.2-0.648-1.49-1.42-0.472-0.28-1.07-0.214-1.54-0.49 0.129-0.554 0.356-1.12 0.351-1.7-0.007-0.925-0.87-1.6-1.44-2.2-0.586-0.615-1.18-1.24-1.65-1.94-0.508-0.756 0.0937-1.06 0.798-0.751 1.13 0.485 2.07 1.32 3.12 1.89 1.32 0.711 2.4 0.641 3.27-0.692-0.142-1.01-1.41-1.5-1.39-2.53 0.655-0.025 2.14 1.21 2.61 0.0875 0.264-0.624-0.201-1.04 0.548-1.52 0.339-0.216 0.75-0.339 1.02-0.654 0.675 1.68 2.94 0.681 4.18 0.435 0.149 1.35-2.09 1.5-2.78 2.3-0.546 0.632-0.182 1.65 0.608 1.88 0.619 0.174 1.24-0.498 1.83-0.0875-0.451 0.761-1.33 1.08-1.89 1.74-0.772 0.91 0.379 0.951 0.932 1.31-0.04 0.486-0.774 0.275-0.784 0.785 0.192 0.529 0.71 0.76 1.22 0.87 0.612 0.625 1.09 2.56 2.08 1.18 0.51-0.715 1.5-0.359 1.79-1.1 0.221-0.566 0.025-1.26-0.121-1.82 0.67 0.228 0.94 1.02 1.63 1.2 1.04 0.269 1.38-1.09 1.27-1.84-0.211-1.54-1.61-2.65-1.59-4.24 1.68 0.015 3.58 4.85 5.3 2.26 1.04-1.57-0.402-3.24-1.47-4.34-0.62-0.635-0.776-0.558-0.462-1.29 0.196-0.462 0.44-0.744 0.992-0.635-0.471 0.835-0.235 2.18 0.959 2.09 0.838-0.0625 0.878-1.14 1.65-1.31 0.156 1.2-1.48 4.07 1.05 2.7 0.125 0.272-0.77 2.43 0.835 1.39 0.548-0.352 1.07 0.498 1.76 0.441 0.969-0.0788 0.442-1.22 0.915-1.72 1.11-1.18 0.174-1.06-0.462-2.12 0.474-0.55 1.91 0.659 2.8 0.0488 0.811-0.558 0.964-1.7 1.2-2.58 0.635 0.282 0.892 0.962 1.39 1.39-0.006 1.69 1.01 1.07 1.74 2.05 0.569 0.765 1.24 1.51 1.73 2.32 0.732 1.18 1.38 2.49 2.12 3.79 0.728 1.27 0.516 1.32-0.282 2.46-0.552 0.794-0.871 1.64-0.944 2.62-0.17 2.32 1.22 3.68 1.9 5.74-2.39-0.28-4.58-2.03-6.97-2.18m-87.7 13c-1.02-0.216-1.99 0.0538-3-0.0612 0.105-0.399 0.162-0.806 0.174-1.22 0.442 1.14 1.79 1.28 1.83-0.175 0.458 0.0713 0.678-0.341 1.13-0.346-0.03 1.14 1.21 1.08 1.92 1.57-0.419 0.688-1.44 0.361-2.05 0.234m-9.98-15c-0.0663 0.465-1.1 0.311-1.56 0.476 0.0437-0.464 0.949-1.24 1.22-1.66 0.501-0.0863 0.376 0.936 0.34 1.18m-26.7-16.9c-0.261-0.302 0.216-0.459 0 0m369-39.4c-0.6-0.345-0.251-1.41-1.1-1.32-0.465 0.05-0.81 0.658-1.3 0.514 0.324-0.572 1.15-1.45 0.684-2.16-0.408-0.609-1.27-0.43-1.84-0.199-1.2 0.482-1.89 1.72-3.2 2.01-0.249-0.672 1.19-2.28 1.59-2.83 0.708-0.984 0.334-1.59-0.545-2.22-0.221-1.09-0.335-0.925-1.39-1.39-0.12-0.536-0.562-0.805-1.05-0.959-0.09-0.548-0.511-0.936-0.607-1.48 0.851-0.335 1.86 0.879 2.6 0.158 0.781-0.764-0.004-1.31-0.36-1.92-0.276-0.47 1.1-1.28 1.09-1.98-0.0187-1.44-1.53-0.624-2.37-0.879-0.369-0.611-1.19-3.35-2.21-1.62-0.415 0.705-1.33 1.69-1.26 0.209 0.0525-1.2-0.866-0.711-1.54-1.3-0.781-0.696-1.51 0.58-1.71 1.15-1.03-0.342 0.502-1.23 0.116-1.88-0.322-0.541-1.08-0.828-1.68-0.738 0.17-0.651 2.64-0.862 1.9-1.78-0.625-0.778 0.844-1.03-0.415-1.88-0.981-0.668 0.03-2.28-1.82-1.24-0.501 0.281-1.15-0.191-1.48 0.226-0.289 0.371 0.0575 0.936-0.278 1.28-0.446-0.266-0.392-0.862-0.781-1.17-0.655-0.52-1.23 0.296-1.57 0.734 0 0.758-0.109 1.55 0.159 2.26 0.199 0.524 0.398 1.34 0.0138 1.84-1.29-0.219-1.02-3.09-2.44-3.4-1.82-0.392-1.21 2.31-2.7 2.26 0.146-0.741 0.955-1.12 1.07-1.87 0.142-0.912-1.15-0.596-1.1-0.745 0.232-0.729 0.731-1.39-0.756-1.22-0.625-0.318-0.715-1-1.57-0.871-0.394 0.361-0.446 0.949-0.697 1.4-0.291-0.0175-0.538 0.075-0.734 0.278-0.312 0.449 0.268 1.18 0.475 1.55-0.332 0.146-1.08-0.564-1.38-0.68-0.724-0.275-0.784-0.4-1.54 0.095-0.993 0.649-0.87 2.22-1.87 2.76-0.778-0.705 0.236-3.11-0.0875-4.18-1.21-1.12-2.25 0.469-2.7 1.48-0.49-0.239-0.295-2.02-0.372-2.56-0.166-1.14-0.998-0.258-1.24-0.972-0.26-0.779-1.1-0.769-1.7-1.09-0.374-0.661 0.0625-1.12 0.366-1.64 0.389-0.664 0.438-1.48-0.366-1.84-0.284 0.0288-1.95-0.418-1.35-0.534 0.801-0.154 1.48-0.0312 1.78-0.946 0.349-1.07-0.733-1.12-1.31-1.74-1.05 0.0113-2.07-0.358-3.12-0.359-0.36 0-1.49-0.292-0.771-0.798 1.03-0.725 2.54-0.165 3.63-0.775 2.01-1.13 0.399-3.32-1.39-3.47-1.75-0.146-3.85 1.48-5.49 0.784 0.095-0.629 1.76-0.476 2.31-0.699 1.34-0.544 0.398-1.99 1.35-2.7 0.666 0.0138 1.05 1.36 1.48 1.74 0.818 0.725 1.41-0.246 1.91-0.786 0.0513-0.586-0.698-0.668-0.0563-1.19 0.504-0.41 0.702-0.134 1.31-0.272 0.941-0.214 1.5-1.08 0.7-1.8-1.05-0.945-1.7-1.16-1.04-2.75 0.416-0.99-1.26-1.85-1.36-1.57-0.108 0.301-1.1 1.08-1.52 0.758-0.584-0.456 0.122-0.886 0.0162-1.45-0.151-0.811 0.655-0.159 0.979 0.004 1.17 0.59 3.49 0.11 2.91-1.68-0.349-1.08-1.37-1.8-2.04-2.69 1-0.874 2.41 1.34 3.45 1.43 0.92 0.08 1.44-0.655 1.25-1.51-0.124-0.58-1.04-0.968-0.959-1.57 0.681-0.0713 1.38 0.725 1.83 0.785 1.17 0.228 1.7-0.51 1.22-1.57 0.484-0.0312 0.779 0.786 1.25 0.252 0.255-0.29 0.249-0.751 0.175-1.1-0.159-0.75 1.2-1.59 0.631-2.27-0.309-0.37-1.04-0.256-1.45-0.451-0.384-0.184-0.611-0.809-1.04-0.872-0.852-0.126-0.89 0.892-1.57 0.959-0.191-0.501 0.151-0.978 0.256-1.44 0.149-0.652-0.339-0.832-0.694-1.26-0.882 0.006-1.62 0.421-2.17 1.09-0.302 0.371-2.46 3.98-2.53 2.43-0.0662-1.7 2.5-5.18-0.81-5.16-1.96 0.0125-2.86 2.93-3.04 4.5-0.376-0.264-1.06 0.144-1.31-0.349 0.336-0.706 1.3-0.541 1.2-1.55-0.0925-0.888-1.28-1.17-1.98-1.32 0.559-1.12 3.88-0.298 2-2.26 0.412-0.664 1.69-0.289 0.538-1.41-0.628-0.608 0.0312-1.41-0.552-1.93-0.401-0.356-0.551-0.399-1.07-0.0538-0.648 0.431-0.404 0.38-1.12 0.141-0.852-0.284-1.45 0.681-1.28 1.42-0.958-0.0137-0.406-2.82-2.31-2.56-0.485 0.0687-3.27 1.18-3.44 0.986-0.35-1.13 1.08-1.72 1.84-2.18 1.48-0.922 0.96-1.49 0.604-2.87 1.06-0.254 1.39-1.44 1.1-2.38-0.114-0.37-1.75-2.02-0.91-2.13 1.03-0.13 2.3 0.655 2.96-0.456 0.58-0.979-0.54-1.58-1.15-2.09-0.136-0.885 0.974-1.27 1.05-2.09 0.112-1.36-1.15-1.44-2.07-1.06-1.19 0.486-1.25-0.009-1.86-0.901-0.79-1.16-0.99-0.942-2.17-0.744 0.135-1.14-1.18-0.811-1.57-1.57 0.265-0.471 1.2 0.0425 1.59-0.435 0.256-0.321 0.176-0.67 0.0238-1-0.28-0.602 0.215-0.754 0.441-1.27 0.561-1.3-1.53-0.789-1.9-1.31-0.611-0.851-1.37-0.921-1.46 0.356-0.71-0.0662-0.84-1.43-1.6-0.102-0.228 0.394-0.42 1.84-0.838 1.93-0.384-0.738-0.119-1.92-1.19-2.04-0.622-0.0687-1.26 0.225-1.34 0.906-0.472-0.258-0.56-0.714-1.19-0.584-0.309 0.1-0.61 0.0775-0.908-0.07-1.01-0.354-1.72 0.486-2.7 0.305 0.832-0.802 2.28-0.83 3.33-1.16 1.26-0.401 2.58-0.682 3.75-1.31 1.11-0.599 1.88-1.42 1.45-2.75-0.498-1.54-2.46-1.22-3.67-1.05-0.828 0.118-2.78 0.349-1.44-0.69 0.938-0.731 2.33-0.632 3.35-1.25 0.79-0.481 1.84-1.6 0.592-2.36-0.89-0.544-2.12-0.07-3.1-0.235 0.365-1.12 2.25-1.21 3.07-1.85 1.46-1.16-0.779-1.49-1.41-1.81 0.005 0.0125 2.76-0.658 1.07-1.77-0.708-0.465-1-0.242-1.26-1.18-0.17-0.615-0.38-1.32-1.18-1.13-1.1 0.271-1.37 1.28-2.66 1.28-1.93-0.007-0.392 1.56-1.02 2.45-2.36-0.269-0.854-4.38-3.48-3.92 0.194-0.764 1.25-0.711 1.05-1.67-0.12-0.585-0.778-0.766-1.28-0.829-1.28-0.156-2.59 1.03-3.77 0.671 0.48-1.32 3.86-2.04 2.73-3.81-0.369-0.58 0.202-1.01-0.282-1.43-0.391-0.34-0.889-0.579-1.02-1.13-0.305-1.27-0.939-0.196-1.68-0.246-0.168-0.795 1.85-1.53 0.26-2.28-0.534-0.25-1.21-0.202-1.74 0.015-0.255-0.462-0.665-0.814-0.872-1.31 0.478-1.08 1.74-0.0238 2.37-1.31 0.499-1.02-0.886-1.09-0.801-1.82 0.662 0.007 1.82 0.0588 1.29-0.97-0.338-0.655 0.701-0.991 0.23-1.66-0.294-0.418-0.911-0.408-1.35-0.331-0.001-0.344-0.148-0.606-0.435-0.784-0.64-0.158-0.831 0.749-1.31 0.61-0.002-0.764 1.01-0.875 0.76-1.75-0.156-0.538-0.855-0.711-1.28-0.948 0.354-0.642 1.6-0.085 2.15-0.389 0.765-0.42-0.299-0.932-0.146-1.27 0.536-0.448 1.34-0.08 0.624-1.2-0.356-0.564 0.186-1.08-0.149-1.66-0.311-0.544-1.27 0.009-1.83-0.194-0.868-0.314-0.921 0.0375-1.35 0.798-0.159 0.0175-0.558-1.43-1.04-1.66-0.531 0.0975-0.964 0.394-1.22 0.871-0.591 1.1-0.334 2.45-0.871 3.57-1.31-0.771-0.231-2.8-1.19-3.79-1.39-1.42-1.94 1.48-3.16 1.09-0.15-0.786 2.82-1.56 0.87-2.35 1.14-1.16-1.08-1.16-0.832-1.97 0.228-0.736-0.716-0.742-1.24-0.472-0.529 0.269-0.431 0.542-1.03 0.624-0.304 0.0275-0.575 0.139-0.81 0.334-0.136 0.484 0.442 0.91 0.262 1.31-0.909-0.608-1.28-1.73-2.62-1.31-0.716 0.302-1.81 1.99-2.53 1.92-0.314-1.42 2.04-2.85 1.08-4.14-1.17-1.57-2.06 1-2.91 0.566-0.0438-0.444 0.298-0.594 0.36-1.01 0.0675-0.238 0.18-0.452 0.336-0.644-0.0625-0.678 0.276-1.55-0.655-1.58-0.418-0.0125-0.348-1.17-0.834-1.56-0.471-0.369-1.11-0.539-1.47-1.04 0.398-0.402 4.13-1.62 1.68-2.65-0.984-0.412-0.929-0.144-0.896-1.34 0.0163-0.6 0.009-1.45-0.692-1.67-0.755 0.188-2.13 1.82-2.68 0.798-0.325-0.599-0.552-1.3-0.538-1.91 0.0263-1.11-0.912-1.37-1.74-0.628-0.514-0.812-1.55-0.512-1.31 0.522-0.581 0.225-1.28-0.76-1.3 0.565-0.006 0.538 0.251 1.17 0.0775 1.7-0.396 0.242-0.879-1.67-1.87-1.03-0.605 0.391-0.781-2.13-2.12-0.541-0.465 0.554-1.82 0.626-2.51 0.899-1.07 0.426-1.52 1.73-2.65 2.24-0.329-1.43 1.5-2.48 1.63-3.83 0.241-2.56-2.93 0.312-3.02 0.256-0.129-0.938 0.661-1.69 0.792-2.58 0.168-1.11-0.589-0.624-1.22-0.815-0.0712-0.348 0.49-1.26-0.324-1.2-0.58 0.0437-0.989 0.411-1.58 0.1-0.456-0.244-0.998-0.754-1.51-0.311-0.612 0.53-0.19 0.95-0.425 1.58-0.215 0.582-0.864 0.606-1.13 1.13 0.0213 0.644 0.76 0.721-0.2 0.881-0.975 0.164-1.3 1.55-2.32 1.47-0.318-0.986 1.16-2.2 0.172-3.14-0.708-0.672-2.02-0.448-2.44 0.436-0.446-0.391 0.166-2.06-1.05-1.74-0.399 0.104-0.435 0.591-0.841 0.14-0.272-0.308-0.516-0.515-0.968-0.361-0.421 0.142-0.614 0.576-0.619 0.994-0.009 0.83-0.009 0.502-0.701 0.859-0.775 0.4 0.335 1.19 0.516 1.59-0.538 0.138-1.04 0.429-1.27 0.959-0.321 0.749-0.39 0.154-1.04 0.552-0.309 0.19-1.74 0.926-2.05 0.668 0.389-0.738 0.72-2.1 0.161-2.84-0.781-1.02-1.42 0.569-1.99 0.834-0.33-0.676 0.556-1.83-0.689-1.78-0.736 0.0288-0.952-1.1-1.64-0.726-0.701 0.384-0.485 1.16-1.29 1.47-1.12 0.429 0.015 0.881 0.229 1.3-2.32 0.489 0.695 1.68 0.959 2.35-0.372 0.318-1.1-0.212-1.57-0.0862-0.522 0.276-0.589 0.985-0.406 1.48 0.244 0.671 0.646 0.505 1.15 0.761 0.728 0.37-0.496 0.728-0.734 0.706-1.81-0.156-0.761 2.01-1.7 2.24-1.25 0.32-0.44 3.26-0.32 4.04-1.9 0.789-1.9-2.77-3.56-3.08-2.24-0.416-0.781 1.76-1.41 2.56-0.741-0.469-0.772-2.12-1.08-2.87-0.288-0.691-0.556-1.41-1.01-2.01-0.472-0.491-0.876-0.424-1.16-1.08-0.27-0.624-0.556-0.928-1.11-0.491-0.364-0.106-0.356-0.564-0.696-0.696-0.965 0.164-0.966 1.47-1.92 1.65 0.225-0.704 0.0175-3.08-1.29-2.02-0.649 0.521-0.609 1.64-1.23 2.11-0.862-1.03 0.709-4.02-1.83-3.66-1.75 0.246-1.36 3.08-2.52 3.84 0.171-1.08-0.0612-2.34-0.834-3.16-0.826-0.87-1.71 0.07-2.65-0.0662 0.158-0.739 1.49-0.822 1.48-1.83-0.007-1.36-1.35-0.889-2.09-0.958 0.134-0.595 0.618-0.99 0.782-1.57 1.2 0.29 1.59 0.899 1.66-0.871 0.598 0.0263 0.529 1.08 1.27 0.546 0.339-0.246 0.411-0.71 0.446-1.09 0.075-0.838 1.84-0.929 1-2.01-0.424-0.555-1.26-0.699-1.46-1.44-0.334-1.28-1.24 0.175-2.04 0.08-0.0138-0.946 1.26-1.47 0.61-2.53-1.09-0.445-2.18-0.125-3.08 0.56-0.516 0.39-1.81 2.11-2.58 1.7-0.152-0.818 0.842-1.85 1.23-2.5 0.5-0.839 1.4-1.6 0.775-2.64-0.272-0.46-1.61-0.812-2.09-0.61-0.781 0.332-1.57 0.87-2 1.6-0.358 0.608-0.821 1.78-1.58 2.05-0.148-0.32 0.121-1.26 0.075-1.64-0.0487-0.416-0.31-0.798-0.512-1.15-0.63-1.1-0.166-0.699 0.656-0.742 0.512-0.0288 2.99 0.0625 2.12-1.33-0.56-0.898-1.39-1.06-0.458-2.13 0.478-0.548 0.936-1.89-0.204-2.07-0.728-0.118-1.47 0.294-2.21 0.262-0.256-0.4-0.378-0.861-0.594-1.28-0.639-1.23-1.84-0.851-2.22 0.295-0.572 1.74-1.23 0.614-1.8-0.496 1.44-0.275 3-1.13 2.31-2.73-0.711-1.64-2.58-0.436-3.79-1.37 0.702-1.41 3.18-0.222 3.71-1.63 0.798-2.1-1.45-1.26-2.23-1.94 0.402-0.7 1.59-0.776 2.21-1.22 1.06-0.755-0.169-1.13-0.642-1.57 0.0275-0.362 1.99-0.245 0.721-1.46-0.54-0.519-0.686-0.035-0.749-0.922-0.025-0.371-0.0587-0.908-0.402-1.15-0.552-0.392-0.984 0.161-1.37 0.464-0.545 0.429-0.698-0.11-1.25-0.0625-0.815 0.254-0.79 1.23-0.696 1.92-1.01 0.015-1.78-3.19-2.9-0.606-0.635 1.48 1.14 3.92 0.111 5.14-1.67-0.659-1.19-3.31-2.97-3.93-2.34-0.811-2.25 2.79-1.66 3.99 0.231 0.469 1.7 2.14 0.452 2.12-0.175 0.241 0.105 0.571-0.348 0.609-0.289-0.0425-0.409-0.198-0.361-0.461 0.195-0.784 0.326-1.2-0.475-1.75-0.858-0.589-1.16 0.696-2.04 0.469-0.095-0.0913 2.54-3.97-0.172-2.79-0.114-0.121 0.968-1.82-0.118-1.54-1.1 0.288-1.14-0.565-1.96-0.94-0.611-0.281-0.981 0.368-1.08 0.855-0.191 0.944-0.452 0.519-1.11 1.1-0.205 0.818 0.725 1.15 0.609 1.83-0.914-0.294-1.18-0.808-2.2-0.976-0.694-0.115-1.13 0.161-1.54 0.686-0.511 0.648-0.815 1.47-1.04 2.22-0.256 0.854-1.01 0.791-1.05-0.11-0.0263-0.55 0.25-1.06 0.305-1.59 0.159-1.53 0.428-2.57-1.44-2.84 0.285-0.925 0.115-2.18-0.872-2.61-0.776-0.345-1.71 0.0675-2.44-0.436 0.299-1.01 3.6-2.09 1.5-3.38-0.726-0.446-1.84 0.302-2.09-0.698-0.131-0.496 0.055-1.14-0.275-1.58-1.13-1.5-2.62 0.834-3.14 1.66-0.846-0.445-2.92-0.882-3.13 0.522-0.809-0.509-1.53 0.105-2.35 0.174 0.246-0.874 1.7-1.45 0.194-2.16-0.701-0.332-0.154-1.57-1.09-1.57-0.898 0.001-1.18 0.891-1.98 0.688-1.49-0.378-0.408 1.11-0.345 1.57-0.555-0.0263-0.826-0.754-1.27-0.172-0.204 0.262-0.521 0.716-0.252 1.02 0.291 0.334 1.07 1.58 0.916 2.02-0.988-0.318-2.66-2.14-2.8 0.292-0.0437 0.764-1.5 1.29-2.17 1.86-0.529 0.439-0.696 1.6-1.39 1.77 0.475-2.76 3.88-5.04 3.69-7.98-0.109-1.77-2.03-2.2-3.29-1.26-0.934 0.696-1.52 2.49-2.66 2.79-1.16-1.83 2.91-4.09 1.33-5.82s-2.4 1.51-3.6 1.55c-0.124-1.32 0.955-2.43 0.831-3.77-0.161-1.73-1.45 0.102-2.14 0.0238 0.122-0.521 0.638-0.855 0.635-1.42-0.002-0.954-1.05-0.625-1.59-0.362-0.865 0.418-2.1-1.11-2.93-0.16-0.474 0.541-0.0137 1.16-0.208 1.77-0.21 0.659-0.916 0.744-1.22 1.31-0.192 1.3 1.09 1.22 1.48 2.18-1.15 0.951-4.92-0.615-3.17 2.69 0.739 1.39 4.97 1.88 4.87 3.36-0.0725 1-4.96 0.0288-5.76 0.304-2.58 0.896-1.04 3.65 0.488 4.62 0.04 0.885-1.45 2.76-1.46 1.01-0.006-0.822-0.05-1.84-0.7-2.46-0.738-0.698-1.78-0.26-2.18 0.5-0.0588 0.111-0.802 1.8-0.8 0.596 0-0.449-0.399-1.29-0.956-1.31-0.516-0.0163-0.629 0.516-0.96 0.784-0.646-0.224-2.33-0.591-1.84 0.771 0.152 0.435 0.64 0.791 0.0875 1.18-0.345 0.241-0.639 0.468-0.481 0.956 0.226 0.699 1.33 0.651 1.89 0.84-0.489 0.482-1.3 0.478-1.73 1.02-0.594 0.745-1.27-0.649-2.1 0.194-1.02 1.04-0.748 3.02-1.92 3.92-1.16-0.858 0.164-3.47-0.565-4.7-0.454-0.769-1.27-0.936-1.87-0.28-0.299 0.322-0.216 1.26-0.784 1.32-0.265-0.341 0.411-2.06-1.05-1.57-0.952 0.32-1.15-0.382-2.09-0.348-0.481 0.0175-0.759 0.449-1.22 0.522-0.436-0.0625-0.665-0.544-1.13-0.436-0.688 0.159-0.585 1.26-0.871 1.74-0.538-0.5-0.355-1.66-1.13-1.92-0.606-0.205-1.3 0.295-1.55 0.808-0.719 1.48-0.164 3.25-0.716 4.77-1.43-0.085-0.77-5.56-2.84-4.74-0.496 0.196-0.864 0.668-1.14 0.015-0.24-0.565-1.59 0.381-1.85 0.546-0.741-0.469-1.27 0.182-2 0.02-0.446-0.1-1.01-0.0775-1.4-0.369 0.146-0.392 3.71-2.96 1.18-3.16-1.23-0.102-1.2-0.045-1.48-1.3-0.13-0.582-0.375-1.28-1.09-1.29-1.51-0.0163-1.08 2.32-3.02 1.47-0.736-0.325-1.91-0.298-1.81 0.811 0.0575 0.632 0.501 1.12 0.646 1.73-0.438 0.0263-0.706 0.416-1.06 0.0825-0.22-0.209-0.364-0.548-0.655-0.674-0.294-0.129-1.68 0.678-1.94 0.852-0.834 0.552-0.502 1.35-1.67 0.924-0.982-0.36-1.22 0.864-1.99 1.08-0.101-1.05 1.72-3.56-0.696-2.96-0.226-0.408 0.436-0.785-0.162-1.1-0.584-0.308-0.571 0.055-1.14 0.055-0.64 0-1.08-0.878-1.74-0.514-0.51 0.281-0.471 0.998-0.354 1.47-0.306 0.41-1.1 0.365-0.864 1.1 0.17 0.522 0.789 0.699 1.04 1.17-1.08-0.025-3.7 0.396-1.95 1.96 0.465 0.415 1.14 0.674 1.42 1.26 0.809 0.142 1.78 0.392 2 1.31-1.45 0.408-3.91-1.57-5.05 0.0863-0.314 1.29 0.969 2.17 0.609 3.4-0.232 0.0975-0.734-1.59-0.888-1.9-0.548-1.11-1.1 0.0712-1.64 0.334-0.282-0.458-0.251-1.72-1.2-0.63-0.561 0.645-1.41 0.282-1.93 0.999-0.114 0.158 0.325 2.53 0.469 2.71 0.196 0.25 0.394 0.858 0.771 0.578 0.141-0.185 0.308-0.21 0.501-0.08-0.015 0.271-1.24 0.601-1.36 0.666-0.805 0.441-0.452 1.06-1.08 1.42 0.418 0.811 1.4 2.75 1.22 3.66-1.6 0.312-2.01-3.02-3.72-2.76-2.43 0.366-0.266 2.2-0.546 3.37-0.892-0.0562-2.88-3.06-3.62-1.37-0.236 0.536-1.37 0.0113-2.01 0.384-0.642 0.379-1.1 1.01-1.78 1.34-0.309-0.965 0.329-2.51-0.609-3.22-0.891-0.149-1.67 0.119-1.92 1.05-1.11 0.648-1.67-1.13-2.83-0.622-0.729 0.315-0.75 1.26-0.651 1.93 0.408 0.314 0.606 0.771 0.339 1.24-0.411 0.732-0.559 0.559-1.2 0.401-0.761-0.19-0.871 0.358-1.54-0.125-0.351-0.256-0.8-0.366-1.14-0.0225-0.74 0.736 0.07 1.55-0.879 2.14-0.948 0.588 0.769 1.25 0.694 1.33-0.454 0.464-0.905 0.749-0.0312 1.3 0.576 0.36 1.41 0.664 2.1 0.619-0.001 0.235-0.881 0.444-1.04 0.482-0.636 0.162-0.945 0.719-0.881 1.52-0.76 0.0462-2.59 0.344-1.54 1.47 0.93 1-0.278 3.06 0.282 4.25 0.415 0.88 1.52 1.64 1.26 2.73-1.72 0.14-2-3.09-3.57-3.31-2.64-0.365-0.721 2.46-0.696 3.4-1.35 0.09-3.92-4.09-3.66-0.262-0.435-0.29-0.92-1.53-1.53-0.791-0.452 0.544-0.18 1.07-0.296 1.75-0.79 0.688-1.84 1.48-0.438 2.28 0.692 0.4 0.946 0.368 1.16 1.17 0.311 1.16 0.776 0.435 1.37 0.988 0.065 0.678-0.0238 1.34 0.324 1.94 0.288 0.501 0.574 1.02 0.374 1.63-1.09 0.128-2.24-2.16-3.42-1.42-1.62 1.01-0.222 1.79-0.241 2.98-0.5 0.0725-3.48-0.911-2.18 1.05-1.5 0.12-1.3 2.35 0.262 2.18 0.344 0.378-0.475 1.1 0.435 1.39 0.836 0.268 1.2-0.694 1.92-0.696-0.312 0.472-0.459 1.22-0.225 1.76 0.0925 0.211 0.94 0.622 0.971 0.502-0.152 0.588-0.599 0.842-0.212 1.65 0.38 0.796-0.321 1.07-0.186 1.93-0.496 0.26-1.84-1.5-2.91-1.14-1.71 0.576 0.2 1.61 0.0312 2.63-0.479-0.138-1.66-1.4-2.08-0.362-0.271 0.668-0.085 0.571-0.804 0.832-0.332 0.122-0.639 0.362-0.671 0.739-0.0787 0.936 1.01 1.08 1.03 1.93 0.0275 1.6 0.869 0.305 1.48 0.262-0.0212 0.432-0.465 2.78-1.21 1.7-0.572-0.83-0.81-0.779-1.84-0.726-0.701 0.0375-1.39 0.141-2.09 0.242-0.551 0.205-0.23 1-0.435 1.39-0.691-0.221-0.584-2.12-0.645-2.64-0.122-1.05-0.419-2.09-1.17-2.87-1.35-1.4-4.23-1.26-4.52 0.934-0.0637 0.475-0.15 2.91-0.994 2.16-0.672-0.598-0.761-1.6-1.18-2.36-1.23-2.2-3.16 0.26-3.08 1.89-0.852-0.299-1.67-2.51-2.49-0.686-0.414 0.914-0.9 0.204-1.71 0.592-0.654 0.315-0.402 1.05-0.007 1.43 1.33 1.29-0.639 1.16-1.2 2.11-0.526 0.886-0.409 2.06-0.379 3.04 0.015 0.471 0.104 3.41-0.906 2.67-0.868-0.625-0.925-2.76-1.21-3.72-0.5-1.65-1.27-2.39-2.98-2.39-0.879 0.742-0.334 2.06-0.871 2.96-0.721-0.56-0.902-2.7-2.2-1.59-0.904 0.776-2.34-0.474-2.91 0.546-0.596 1.06 0.679 1.88-0.13 3.09-0.769 1.15 0.602 1.7 1.49 1 0.184 0.695-1.69 1.73-0.1 2.22 1 0.314 2.66-0.631 3.5 0.129-0.411 1.06-1.89 0.714-1.94 2.2-0.0375 0.976 0.51 1.58 1.47 1.4 0.404-0.0775 0.962 0.01 1.34-0.105 0.39-0.119 0.538-0.441 0.972-0.521 0.432-0.0787 2.47-0.468 1.53 0.598-0.718 0.811-1.86 1.07-2.63 1.84-0.394 0.4-0.565 1.37-1.24 1.04-0.838-0.405-2.7-4-3.6-1.13-0.235 0.751 0.339 1.93-0.409 2.45-0.919 0.635-1.18-0.491-1.66-0.905-1.72-1.49-2.65 0.485-3.35 1.8-0.454 0.854-1.22 1-0.988-0.202 0.148-0.755 0.384-1.4 0.421-2.22 0.12-2.67-2.36-0.359-3 0.381-0.564-0.624-0.111-1.77-0.261-2.51-0.254-1.26-0.97-0.244-1.57-0.276-0.0475-0.629-0.576-1.68-1.29-0.886-0.689 0.764-1.32-0.07-2.11 0.102-0.865 0.186-0.498 0.769-0.61 1.31-0.881 0.445-1.04 0.965-2.16 0.722-2.56-0.552-0.72 1.92-1.25 2.92-0.348 0.658-0.644 1.17 0.146 1.73 0.502 0.355 1.44 0.0112 1.79 0.545-0.366 1.38-3.77-0.115-2.85 2.48 0.459 1.3 2.18 1.54 3.34 1.73 0.674 0.105 0.702 0.882 1.42 1.22 1.13 0.52 0.27 0.42-0.259 0.585-1.26 0.344-3.72 0.44-3.89 2.03-0.116 1.09-2.33 0.395-2.12 2.45 0.0637 0.626 1.68 3.61 0.288 2.72-0.996-0.636-1.45-2.6-2.91-2.32-1.34 0.26-0.705 2.3-0.25 3.04-1.01 0.312-3.25-3.28-3.4-0.175-0.751 0.0687-0.174-1.1-1.06-0.545-0.334 0.209-0.392 0.596-0.435 0.951-0.12 1.01-1.59 1.25-1.36 2.2 0.106 0.44 0.49 0.639 0.898 0.722 0.692 0.144 0.592 0.372 0.869 1.01 0.57 1.32 1.8-0.625 2.13-0.248 0.22 0.561-0.329 1.01-0.696 1.31 0.0838 0.254 0.095 0.512 0.0325 0.774-0.085 0.552 0.688 0.938 1.19 0.881 0.0962 0.724-0.351 1.04 0.215 1.74 0.292 0.36 0.635 0.662 0.744 1.14-1-0.0163-1.76-0.851-2.69-1.12-1.51-0.438-0.831 1.06-0.712 1.73-0.409 0.122-2.47-1.38-1.84 0.641 0.304 0.976-1.41 1.58-0.851 2.51 0.24 0.4 0.891 0.339 1.28 0.444 0.721 0.194 0.734 0.731 1.06 1.28 1.12 0.166 1.28-0.825 2.18-1.13 0.396 0.734-0.934 1.73-0.452 2.49 0.468 0.732 0.991 1.55 1.15 2.48-0.508 0.0437-3.14-2.51-2.98-0.175 0.085 1.27 1.93 2.49 1.42 3.75-1.26-0.372-1.41-1.86-2.61-2.22-1.15-0.345-1.9-0.841-2.8-1.5-1.02-0.75-0.978 1.44-1.82 0.932-0.769-0.464-1.19 0.829-1.75 1.05 0.045-0.728 0.581-1.81-0.174-2.35-0.712-0.691-0.474 0.902-0.946-0.459-0.324-0.934-1.16 0.11-1.72-0.189-0.505-0.271-0.95-0.655-1.2 0.192-0.21 0.704-0.252 3.71-1.7 2.52-0.489-0.404-1.98-1.61-2.31-0.329-0.259 0.995 0.592 2.32-0.874 2.36-0.789 0.0175-0.91 1.19-0.438 1.63 0.438 0.414 1.1 0.509 1.64 0.715 1.13 0.432-0.502 0.788-0.826 0.968-0.66 0.368-1.01 0.99-1.04 1.74-1.85 0.322-0.262 2.01-0.349 3.22-1.35 0.0738-1.76-2.2-3.05-0.0863 0.181 1.3 1.48 2.18 1.31 3.57-1.06-0.318-1.56-1.53-2.57-1.95-1.28-0.532-1.64 0.826-2.57 1.26-0.07-0.829 0.588-1.35-0.461-1.58-0.605-0.132-0.779-0.836-1.36-1-0.674-0.189-0.946 1.13-1.6 1.46-0.894 0.448-0.252 0.452-0.06 1.21-0.394 0.391-1.24 0.301-0.464 1.07 0.351 0.351 1.17 0.81 1.33 1.28-1.3 0.201-1.82-2.35-3.18-1.44-1.09 0.718-0.374 2.79-1.09 3.8-0.636-0.214-0.67-1.17-0.668-1.71 0.004-0.736-0.126-0.886-0.351-1.57-0.185-0.556-1.06-1.36-1.69-0.719-0.376 0.39-0.188 1.04-0.516 1.47-0.579-0.185-0.15-1.19-0.785-1.31-0.429-0.015-0.605 0.281-0.959 0.436-0.274-0.116-0.559-0.195-0.854-0.235-1.17-0.0937-0.434 1.28-0.836 1.8-0.371 0.479-0.338 1.4 0.471 1.31 0 0.474-0.468 0.876 0.198 1.18 0.562 0.254 1.22 0.139 1.81 0.305-0.442 0.434-1.75 0.891-1.21 1.76-0.0175-0.0275 1.31 1.27 0.558 1.1-0.8-0.189-0.92-1.07-1.94-0.406-0.23 0.15-1.62 1.27-1.21 1.53 0.712 0.444 0.218 1.48-0.56 0.728-0.395-0.381-0.916-1.07-1.53-0.544-0.548 0.468-0.469 1.48-0.386 2.11-0.548 0.524-1.5 0.291-2 0.872-0.204 1.02 0.42 1.31 1.19 1.73 0.806 0.434-0.232 1.26 0.221 1.94 0.806 1.21 3.02-1.32 2.71 0.146-0.196 0.915-0.475 1.67-1.34 2.03-0.718 0.299-1.07 0.986-0.752 1.72 0.484 1.1 2.71 1.54 2.68 2.72-1.48 0.269-2.77-1.46-4.3-0.749-1.78 0.831 0.075 1.51 0.374 2.32-0.584 0.386-1.08-0.541-1.49 0.268-0.354 0.705-0.0475 0.951-0.686 1.57-0.475 0.459-0.0462 1.18 0.546 1.31 0.859 0.194 0.556 0.37 1.12 1 0.451 0.51 0.738-0.02 0.929-0.386 0.234-0.452 0.421 0.558 0.542 0.594 1.36 0.0838 1.14-1.41 2-2 0.529 0.209 0.0325 0.869 0.0862 1.22 0.0625 0.404 0.394 0.591 0.524 0.958-1.09 1.15 0.384 1.19 0.609 2-0.344 0.346-0.89-0.1-1.13 0.522-0.192 0.492 0.276 0.859-0.0862 1.36-1.02 1.41 0.646 0.892 1.27 1.51 0.294 0.291 0.65 1.14 1.09 0.398 0.331-0.561 0.392-0.419 0.672 0.006 0.504 0.765 1.45-1.88 1.68-2.06 0.162 0.68 1.15 3 1.93 1.32 0.359-0.778 0.0675-2.09 0.862-2.63 0.36 1.71 0.476 3.52 2.53 2.79 1.22 0.549 1.39 0.824 2.71 0.2 0.626-0.296 1.65-0.849 2.34-0.896 0.002 0.225-0.95 1.4-1.13 1.57-0.705-0.0962-1.61-0.111-2.16 0.431-1.16 1.15 0.312 3.02 0.0662 4.36-1.47-0.0288-1.51-2.12-2.28-2.97-0.61-0.679-2.13-0.388-2.16 0.612-0.0163 0.538 0.485 1.58-0.005 2.01-0.891-0.489-1.13-1.59-1.92-2.19-1.27-0.965-0.915 0.916-1.4 1.24-0.468 0.015-0.798-1.92-1.55-0.549-0.276 0.502-0.172 0.905-0.724 1.18-0.356 0.175-0.745 0.334-1.03 0.624-0.659 0.672-0.144 1.08 0.488 1.48 0.761 0.48 0.214 0.732 0.62 1.43 0.74 1.28 1.54-0.321 2.37 0.192-0.181 1.06-2.35 1.68-0.886 2.84 0.754 0.595 0.115 0.869 0.189 1.69 0.0538 0.61 0.821 1.2 0.61 1.83-1.26-0.274-4.46-3.84-3.66-0.175-0.68-0.202-2.07-2.04-2.05 0.112 0.009 1.06-2.11 1.43-1.35 2.68 0.295 0.482 0.929 0.438 1.32 0.784 0.32 0.281 0.33 0.729 0.516 1.08 0.624 1.17 1.62-0.399 2.34-0.385 0.186 0.92-0.889 1.26-0.984 2.1-0.115 1.04 1.02 1.38 1.86 1.31 1.98-0.176 3.14-3.08 5.14-2.88-0.04 1.65-4.33 4.98-1.81 6.42 0.594 0.338 1.46 0.001 1.93 0.501 0.196 0.21 0.328 0.58 0.669 0.595 0.688 0.0288 0.569 0.472 1 1.13 0.238 0.362 0.451 0.749 0.39 1.2-0.355 0.0662-4.14-1.08-3.78 0.132 0.172 0.576-0.48 0.649 0.174 1.34 0.329 0.352 0.891 0.76 0.68 1.32-0.318 0.842-1.81 1.29-1.5 2.37 0.551 1.88 2.55-0.0837 3.47 0.965 0.622 0.712 0.682 3.22 2.22 2.38 0.594-0.325 0.819-1.07 1.14-1.62 0.544-0.949 0.802-0.342 1.44 0.259-1.28 1.53 0.959 1.88 1.81 2.32 0.584 0.309 1.14-0.0537 1.57-0.434 0.526-0.466 0.196-1.12 0.722-1.54 1.31 0.535-0.095 1.71-0.07 2.54 0.0387 1.26 1.8 0.99 2.68 1.2 0.0325 0.608-2.3 1.13-2.76 1.53-1.25 1.09 0.749 1.04 0.931 1.78-1.4-0.0688-1.55 0.896-0.489 1.6 0.711 0.471 0.0537 2.01 1.1 2.23 0.539 0.115 0.858-0.311 1.22-0.608 0.546-0.448 0.858-0.0575 1.49-0.126 1.08-0.119 0.504-1.32 0.778-2.06 0.715 0.279 0.676 1.2 1.25 1.6 0.838 0.592 1.72-0.314 1.93-1.07 0.311-1.14 0.08-2.36-0.275-3.46-0.0875-0.27-0.581-2.52 0.426-1.87 1.4 0.899 1.23 4.62 3.49 4.36 1.94-0.22 1.34-2.68 3.12-3.23-0.0863 1.1-1.1 1.78-1.52 2.71-0.482 1.07 1.48 0.821 1.95 0.864-1.04 0.19-0.964 1.56 0.0238 1.77 0.795 0.166 0.958-0.199 1.61 0.601 0.358 0.438 0.748 0.624 1.28 0.262 0.442-0.302 0.458-0.944 0.49-1.42 0.402-0.249 0.881-0.394 1.22-0.739 0.902-0.912-0.872-1.2-0.699-2.05 0.94-0.0788 1.45 0.995 2.35 1.13 1.04 0.16 1.77-0.491 2.28-1.34 0.586-0.981 0.928-2.12 1.64-3.02 0.702-0.0487 0.665 0.954 0.621 1.38-0.13 1.26-1.4 4.64 0.849 4.81 1.66 0.122 1.56-1.89 2.62-2.62 0.375 1.16 0.102 2.38 0.32 3.56 0.296 1.59 1.44 0.244 1.91 1.28 0.662 1.45 2.37 1.12 3.52 1.4 0.922 0.224-0.659 1.42-0.889 1.55-0.746 0.424-1.27 0.885-1.16 1.83 0.275 2.22 2.71-0.0263 3 1.68 0.161 0.942 0.0588 1.85 1.02 2.36 0.75 0.394 1.34 0.12 1.71-0.615 0.384-0.764 0.608-1.82 1.68-1.71 1.14 0.116 0.542 0.468 1.08 1.12 0.282 0.344 0.708 0.515 1.04 0.798-0.0725 0.322-0.0575 0.64 0.0463 0.952 0.208 0.549 0.839 0.778 1.36 0.49 0.394-0.218 0.626-0.646 1.04-0.832 0.342 0.0788 0.684 0.0875 1.03 0.025 0.918-0.156 0.751-0.835 0.368-1.51 2.97 0.968 0.344-2.82 0.348-3.66 0.414-0.111 1.17 0.726 1.55 0.894 1.02 0.451 1.03-0.272 1.94-0.458 1.19 0.639 1.85 2.14 2.53-0.0512 0.26-0.831 1.3-0.694 1.48-1.69 0.72-0.166 1.32-0.616 1.75-1.2 0.658-0.881 0.821-3.4 2-3.68 1.06 1.9-1.53 4.66 0.0312 6.29 2.01 2.1 2.41-2.26 3.37-2.64 1.09 0.952-0.282 3.21 0.41 4.47 0.785 1.42 1.68-0.785 2.29-0.986 0.075 0.745-0.732 1.09-0.35 1.81 0.305 0.575 0.919 0.711 1.38 0.231 1.15-1.2 1.75 0.114 2.93-0.51 1.29-0.682 0.34-1.5 0.371-2.72 0.0337-1.24 1.69-1.76-0.144-2.74 0.252-0.439 0.878-0.448 1.22-0.842 0.412-0.484 0.605-1.1 0.88-1.66 0.786-1.61 1.47-0.758 1.5 0.652 0.0275 1.51 0.452 2.7 2.16 2.73 0.41-0.249 0.852-1.16 1.31-1.22-0.0475-0.462 0.0263-1.02 0.61-1.05-0.0163 0.869 0.834 1.69 0.349 2.35 0.119 0.46 0.134 0.962 0.349 1.39 0.182 0.368 0.729 0.566 0.744 1 0.01 0.272 0.572 1.05 0.789 1.23 0.558 0.469 0.276 1.3-0.365 0.718-0.875-0.791-2.31-2.51-3.57-2.77-1.07-0.219-1.87 0.975-1.4 1.92 0.334 0.665 1.24 1.11 1.27 1.91-0.821 0.201-2.42-1.28-3.05-1.74-0.529 0.122-1.18-0.426-1.29 0.489-0.065 0.54 0.336 1 0.415 1.51-0.594-0.121-2.06-2.06-2.13-0.104-0.0238 0.701 0.279 0.856-0.22 1.48-0.411 0.509-0.926 0.689-0.688 1.4 0.381 1.14 1.76 0.82 2.34 1.88 0.208 0.375 0.431 0.771 0.869 0.918 0.461 0.115 0.372-0.386 0.784-0.349 0.142 0.86-0.0425 1.52 0.494 2.28 0.37 0.526 0.774 1.04 0.725 1.73-1.26 0.055-2.85-1.77-4.04-0.729-1.53 1.34 0.314 1.78 0.295 3.08-0.299-0.0575-3.26-0.479-2.37 0.774 0.714 1.01-1.68 1.38-0.54 2.34 0.395 0.334 0.965 0.368 1.43 0.545 0.0775 0.395 0.0312 1.12 0.522 1.31 0.942 0.351 1.35-0.785 2.09-1.05 0.0112 0.719-0.616 1.79 0.316 2.21 0.101 0.0463 1.01 0.269 1.08 0.17-0.624 0.9-0.662 1.34 0.176 2.32-0.148 0.442-0.606 0.64-0.37 1.17 0.111 0.256 0.49 0.52 0.458 0.83-1.13-0.446-2.36-2.18-3.72-1.31-1.55 0.991 0.52 1.85 0.414 2.88-0.632-0.118-1.61-1.24-2.07-0.168-0.261 0.611-0.005 0.742-0.639 1.11-0.462 0.271-0.879 0.494-0.781 1.1 0.138 0.848 1.12 0.756 1.29 1.6 0.336 1.6 0.889 0.428 1.68 0.282 0.282 0.598-0.254 1.23 0.758 1.05 0.55-0.105 0.986-0.486 1.38-0.858 0.196-0.184 0.508-0.652 0.744-0.808 0.358-0.236 0.366 0.314 0.201 0.471-1.46 1.42 0.828 3.37 2.09 1.49 0.288-0.428 0.392-0.891 0.956-0.415 0.66 0.558 0.109 0.458 0.0288 1.22-0.0913 0.869 0.568 1.66 1.39 1.85 0.42 0.0987 0.862 0.035 1.23-0.199 0.586-0.371 0.729-0.138 1.44-0.235 0.91-0.126 0.956 0.825 1.72 0.879-0.831 0.881-1.75 2.61 0.0438 2.99 1.04 0.221 2.4-0.218 3.35 0.318-0.469 1.11-2.48 0.929-3.42 1.32-1.54 0.634-1.12 2.07 0.375 2.2 1.34 0.122-0.441 0.652-0.612 0.838-0.105 0.601 0.124 0.93 0.438 1.4-0.194 0.282-0.264 0.59-0.208 0.924 0.258 1.25 1.52 0.412 2.19 0.736 1.54 0.739 0.748-0.542 1.07-0.875 0.624 0.07 1.29 0.912 1.42-0.342 0.065-0.636-0.175-1.42 0.148-2.01 0.758 0.42 0.336 1.5 1.46 1.38 0.545-0.0562 0.95-0.332 0.978-0.908 0.0438-0.936-0.656-2-0.254-2.92 1.1 0.191 0.81 2.38 2.35 2.53-0.815 0.921-0.888 3.13 0.896 2.57 0.869-0.272 1.26-1.47 2.24-1.44 0.118 0.744-1.42 1.66-1.48 2.61-0.0325 0.562 0.328 1.54 1.09 1.17 0.268-0.128 0.394-0.51 0.739-0.476 0.08 0.44-0.599 0.668-0.102 1.14 0.448 0.428 0.75 0.335 1.14 0.926 0.439 0.651 1.42-0.955 2.18-0.932 0.0213-0.302-0.0662-0.561-0.261-0.786 1.36-0.872-0.0725-0.845-0.175-2 0.629 0.201 2.06-0.0387 1.53-1.01-0.375-0.69-1.4-0.728-1.53-1.6 1.17 0.116 1.92 1.12 2.68-0.152 0.414-0.699 0.153-0.896-0.195-1.36-0.0363-0.045 0.989-1.01 1.15-1.19 0.305-0.328 0.603-1.42 1.07-1.48 0.481 0.955-0.574 2.4 0.675 3.02 1.13 0.568 1.48-0.821 2.11-1.37 0.719 0.429 0.0125 2.09 1.21 2.29 1.12 0.191 0.638-0.978 1.32-1.24 1.02 0.729 0.118 1.44 1.74 1.05 0.532-0.129 2.3 0.0238 1.9-1.07-0.129-0.354-0.596-0.676-0.131-1.03 0.271-0.211 0.574-0.44 0.32-0.838-0.319-0.501-1.12-0.328-1.48-0.806 0.205-0.308 2 0.758 2.71 0.0487 0.816-0.82 0.672-2.16 1.29-3.1 1.11 0.442 0.235 2.67 0.789 3.63 0.845 1.45 2.14-0.415 2.35-1.36 0.95 0.455 0.229 2.12 0.976 2.76 0.639 0.542 1.08-0.811 1.47 0.01 0.322 0.685 0.949 0.692 1.52 0.222 0.661-0.54 2.55 0.08 1.95-1.68-0.211-0.618-0.305-1.19-0.0875-1.83-0.321-0.554-1.12-0.594-1.66-0.784 0.346-0.514 1.18-0.455 1.68-0.744 0.692-0.401 0.458-1.5-0.159-1.84-1.64-0.911-2.95-0.116-4.58-0.6-1.68-0.499 1.65-1.34 2.11-1.34 0.825-0.431 1.77-0.525 2.08-1.45 0.231-0.685-0.325-0.582-0.251-1.17 0.904-0.474 1.58 1.08 2.11 1.36 0.995 0.545 1.15 0.924 1.61 1.76 0.548 0.992 0.296 1.06 1.48 0.985 0.774-0.0512 1.18 0.671 1.43-0.616 0.505 0.138 0.754 0.96 1.31 0.386 0.415-0.426 0.441-1.14 0.432-1.69 0.284-0.136 0.895 0.832 1.49 0.788 1.43-0.11 0.22-1.23 0.866-1.83 1.14 0.679 1.39 1.41 2.7 0.412 0.63-0.476 0.354-1.6 0.348-2.33 1.09-0.035 1.94-0.58 2.46-1.52 0.56-1.01 0.27-1.46-0.242-2.42-0.702-1.3 1.36-0.295 1.89-0.289 0.81 0.01 1.63 0.265 2.42 0.446 3.54 0.809 7.08 2.61 10.8 2.74 2.21 0.08 4.43-0.35 6.58 0.356 2.61 0.861 5.15 1.93 7.71 2.93 4.32 1.69 8.18 5.02 10.2 9.18 1.99 4.15 1.27 8.6 1.33 13.1-0.224 0.47-0.752 0.634-1.05 1.04-0.31 0.434-0.405 0.969-0.611 1.45-0.37 0.864-0.284 1.7-0.256 2.64 0.035 1.35 0.0912 2.71 0.06 4.06-0.0225 1.06-0.376 2.12-0.321 3.16 0.126 2.4-1.31 4.56-0.602 7 0.294 1.02 0.938 1.26 0.889 2.36-0.0537 1.23 0.0962 2.46 0.148 3.68 0.105 2.61-1.35 5.3-2.89 7.38-1.56 2.1-3.43 4.08-5.47 5.72-4.16 3.35-8.95 5.54-14 7.29-9.44 3.29-18.7 4.1-29.8 4.88-4.11 0.291-57 6.49-57.8 7.7h77.5c7.77 0.0475 15.1 0.662 16.1 8.95 15.8-8.95 24.3-8.95 29.6 12.3 12.2-21.3 21.2-21.3 38.4-6.71 0.809-14.6 13.9-14.5 24.4-14.6h21.4 53.6c0.54 0 1.08 0 1.65-0.004-2.85-2.23-44.7-6.34-52.5-7.65-7.11-1.18-14.2-2.37-21.3-3.62-3.19-0.559-6.56-0.99-9.65-2.01-2.83-0.932-5.86-3.13-8.2-4.96-4.07-3.19-7.65-7.38-10.6-11.6-3.02-4.25-5.07-9.45-5.48-14.7-0.496-6.22-0.101-12.3-0.0788-18.6 0.0125-2.96 0.0387-6 1.07-8.82 0.384-1.04 0.604-2.03 1.13-3.05 0.194-0.008 1.21 1.94 1.57 2.27-0.659 0.384-2.63 0.996-0.928 1.82 0.7 0.335 0.879 0.434 0.442 1.12-0.285 0.452 0.165 1.04 0.658 1.06 0.532 0.03 0.74-0.604 1.22-0.61 0.544-0.006 0.778 0.556 1.21 0.762 1.34 0.624 0.671-1.56 0.791-1.72 1.33 0.02 1.54 1.54 2.79 0.349 0.0263-1.04-0.584-1.97-0.784-2.96 0.36-0.122 0.904 1.14 0.784 1.4 0.451 0.42 0.879 1.04 1.57 1.05 0.504 0.002 0.964-0.474 1.48-0.262 0.162 0.759-0.979 1.2-0.87 2 0.135 0.999 1.27 0.559 1.42 1.42 0.266 1.52 2.18 1.23 2.32-0.202 0.67 0.0337 1.56 0.962 1.75-0.41 0.0662-0.501-0.731-1.45-0.531-1.77-0.06 0.0937 1.32 0.725 1.39 0.858 0.124 0.25-0.16 0.371-0.191 0.574-0.111 0.704 0.301 1.35 0.806 1.79 1.04 0.301 1.64-0.772 2.61-0.61 0.192 0.329-1.12 1.86-1.39 2.35-0.339 0.612-0.252 1.16 0.348 1.57 0.451 0.0737 0.781-0.189 1.22-0.174-0.111 0.525-1.83 1.58-0.261 2 1.17 0.312 1.28 0.254 2.03 1.32 0.275 0.39 0.731 0.308 1.13 0.155 0.638-0.241 0.181-0.729 0.5-1.22 0.368-0.561 1.3-0.374 1.57-1.04-0.0238-0.321-1.44-2.8-0.315-2.05 0.52 0.345 1.66 1.56 2.26 0.646 1.15-1.77-0.716-3.5-1.78-4.8-0.229-0.281-2-2.2-0.655-2 0.881 0.129 1.38 1.04 2.24 1.23 0.554 1.61 3.54 1.74 3.76-0.152 0.11-0.895-0.655-1.86-0.396-2.58 0.155-0.436 0.795-1.36 0.891-0.302 0.0962 1.05-0.355 1.86 0.238 2.9 0.606 1.06 1.06-0.26 1.78-0.0437-0.324 0.935 0.211 1.74 1.22 1.31 0.675-0.285 0.71-0.591 1.48-0.135 0.349 0.206 0.796 0.364 1.15 0.0475 0.439-0.389 0.274-1.16 0.09-1.62-0.248-0.621-0.05-0.675 0.341-1.19 0.824-1.08-1.06-1.71-1.67-2.08 0.534-0.734 1.92 0.128 2.7-0.225 0.875-0.391 1.38-1.13 1.33-2.09-0.0575-1.33-0.356-2.61-0.374-3.95 0.655-0.119 1.08 0.368 1.36 0.894 0.626 1.22 0.719 3.52 2.09 4.22 1.13 0.578 1.75-0.511 2.22-1.28-0.192-0.872-0.246-1.73-0.259-2.61 1.07-0.45 2.28 5.18 3.81 3.68 0.422-0.42 0.116-0.718 0.824-0.269 0.446 0.281 0.886 0.581 1.38 0.776 1.07-0.152 1.92-1.08 3.05-0.96 0.19 1.4-1.48 3.1-0.295 4.34 1.37 1.43 1.86-0.879 2.97-0.455 1.09 0.414 1.16 1.85 2.27 2.13 1.35 0.34 1.56-0.76 1.54-1.86-0.0188-1.28 0.379-2.94 1.81-1.61 0.57 0.535 1.09 0.0188 1.62 0.558 0.312 0.312 0.929 1.4 1.5 0.995 0.875-0.608 0.45-1.66 1.41-2.08 2-0.861 0.0613-1.28-0.544-1.94 0.209-0.456 1.78 0.13 1.61-1.07-0.106-0.761-1.15-0.96-1.52-1.54 1.04-0.13 2.03 0.445 3.07 0.322 1.04-0.121 0.892 0.375 1.37 0.986 0.715-0.326 0.916 0.394 1.28 0.814 0.511 0.591 0.991-0.331 1.51-0.292-0.162 0.558-0.74 1.1-0.269 1.7 0.25 0.314 0.71 0.481 0.79 0.919-0.888 0.211-1.99-1.44-2.67-0.1-0.296 0.594-1.1 0.394-1.05 1.15 0.0325 0.484 0.37 0.572 0.0812 1.06-1.04 1.75 0.515 0.881 1.17 1.75 0.806 1.07 1.08-0.415 1.86-0.29 0.0425 0.408-0.0425 0.785-0.261 1.13 0.146 0.305 0.321 0.598 0.524 0.87 0.656 0.0825 1.2-0.119 1.61-0.631 0.62-0.769 1-2.47 2.05-2.68 0.06 1.02-0.414 1.98-0.508 2.98-0.131 1.4 1.2 0.961 1.37 1.82 0.136 0.725 1.03 0.282 1.49 0.338 0.332-0.0425 0.251 0.294 0.436 0.436 0.965-0.0825 1.58 0.401 2 1.22-0.674 0.007-3.04 0.176-2.25 1.5 0.386 0.65 1.28 0.431 0.978 1.32-0.148 0.43-0.364 0.952-0.209 1.42 0.408 1.23 1.84-0.432 2.54 0.0775 0.526 0.384 1.42 1.82 2.08 0.699 0.276-0.469 0.0487-1.83 0.749-1.58 0.421 0.148 0.378 0.682 0.554 1 0.25 0.465 2.25 0.162 2.45-0.27 0.262-0.58 0.835-1.72 0.504-0.359-0.164 0.685 0.569 0.728 0.71 1.26 0.385-0.164 0.834-0.685 1.31-0.525 0.159 0.765-2.72 2.21-0.349 2.27-0.104 0.741-0.886 0.438 0.015 1.23 0.406 0.359 1.37 1.54 1.89 0.995 0.515-0.536 0.31-1.05 1.24-0.74 0.568-0.529 0.101-1.08-0.0863-1.66 0.621-0.112 0.779 0.709 1.39 0.699 0.799-0.0163 0.875-0.884 0.784-1.48-0.15-0.978-1.81-2.05-1.48-3.05 0.901 0.308 2.96 2.89 3.81 1.72 0.212-0.292 0.569-1.4 0.836-0.47 0.174 0.612 0.629-0.118 0.929 0.145 0.0963 1.07 2.93 1.49 2.85 0.0763-0.0288-0.532 0.914-1.32 0.602-1.66-0.161-0.175-0.92-0.361-0.84-0.684 1.87 0.0425 2.67 0.0425 2.78-2.06 0.0187-0.33-0.095-1.53 0.472-1.27 0.39 0.175 0.498 0.689 0.57 1.06 0.17 0.859 0.156 2.42 1.4 2.3 1.07-0.108 1.17-1.36 1.14-2.2 0.686-0.06 0.879 1.66 1.2 2.07 0.59 0.771 1.64-0.532 1.56-0.646 0.261 0.366 0.368 1.66 1.15 0.688 0.22-0.274 0.371-0.642 0.71-0.802 0.489-0.231 1.09 0.0562 1.48-0.435 0.108-0.496-0.0525-0.786-0.43-1.08-0.465-0.356-0.0962-0.629-0.185-1.14-0.145-0.85-1.13-0.944-1.82-0.924 0.496-0.646 2-0.985 1.25-2.13-0.692-1.05-2.63 0.045-2.69-1.35-0.0563-1.25 1.48-1.52 0.879-2.71-0.161-0.318-1.34-1.87-0.551-1.54 0.835 0.356 1.36 2.31 1.81 3.02 0.741 0.931 1.68 1.63 2.92 1.25 2.66-0.806-1.1-3.66-0.832-5.08 1.59-0.0987 2.41 2.56 4.13 2.59 2.32 0.0362 0.322-1.82 0.401-2.59 0.834-0.211 1.53 1.56 2.09 0.03 0.244-0.659 1.79-1.04 1.39-1.79-0.231-0.446-0.721-0.672-1.04-1.03 0.055-0.268 0.0575-0.531 0.004-0.799-0.312-1.12-0.796-0.105-1.4-0.161 0.141-2.54-2.15 0.3-2.96 0.349-0.222-0.396 0.4-0.814 0.45-1.1 0.114-0.645 0.215-0.97-0.361-1.49-1.11-0.994-2.11 1.41-2.88 1.63 0.01-0.45-0.0238-0.934 0.139-1.36 0.266-0.7 0.742-0.199 1.29-0.544 0.878-0.552 0.01-1.66-0.0387-2.36 0.461-0.356 0.831 0.168 1.05-0.558 0.0812-0.308 0.115-0.62 0.0987-0.939-0.0212-0.755-0.274-1.59-0.102-2.34-0.0863-0.404-0.509 0.0813-0.698-0.175 0.0975-0.34 0.14-0.685 0.124-1.04-0.001-0.436-0.245-2.45 0.621-2.01 1.35 0.69 0.365 3.22 1.61 4.09 1.04 0.232 1.35-0.474 2.18-0.522-0.199-0.666-0.388-1.72 0-2.35 1.06 0.268 0.996 2.12 1.54 2.86 0.316 0.425 0.885 0.508 1.22 0.075 0.429-0.54 1.32 0.652 2 0.6 0.574-0.045 2.1-1.11 2.22-0.23 0.095 0.716-0.846 1.24-0.878 2.01-0.025 0.599 0.075 1.73 1.14 1.48 0.688-0.161 1.04-1.07 1.69-0.382 0.43 0.454 0.624 1.14 1.18 1.48 0.696 0.422 1.74-0.0888 1.69-0.891-0.0375-0.534 0.035-1.3 0.451-1.7 0.402-0.376 0.822-0.0775 1.22 0.152 0.368 0.218 0.77 0.375 1.12 0.611 0.631 0.43 1.39 1.3 1.92 0.219 0.43-0.889 0.938-0.639 1.49-1.32 0.505-0.621-0.196-0.582-0.41-1.04 2.41-0.055-0.725-2.51-0.956-3.05 0.0975-0.0825 1.12 0.274 1.37 0.239 0.634-0.09 1.14-0.45 1.42-1.02 0.535 0.388 1.13 0.83 1.63 0.371 0.642-0.58 0.18-0.736 0.194-1.42 0.381-0.871 0.716-1.62 1.28-2.3 0.726-0.894 0.402-2.31 0.468-3.36 0.01-0.216-0.329-1.21 0.318-0.766 0.328 0.222 0.466 0.651 0.559 1.02 0.224 0.862 0.239 1.77 0.535 2.62 0.278 0.806 1.07 1.43 1.91 0.848 1.14-0.785 0.11-2.07 0.854-2.85 0.795 0.645 0.885 1.98 1.37 2.83 0.9 1.57 1.19-0.629 1.68-0.828 0.392 0.376 0.769 2.34 1.57 0.802 0.63-1.22 1.32-0.635 2.26-1.41 0.192-1.21-0.995-1.75-0.845-2.85 0.0525-0.372 0.215-1.07-0.251-1.28-0.261-0.119-0.91-0.0738-0.54-0.542 0.624-0.791 0.516-1.76 0.766-2.73 0.264-1.04 0.536-0.372 0.955 0.259 0.618 0.929 1.13 2.38 2.51 1.79 0.904-0.388 1.04-1.47 0.806-2.31 0.802 0.191 1.82 1.81 2.45 0.472 0.34-0.731 1.83-0.442 1.65-1.69-0.0575-0.404-0.438-0.565-0.685-0.826-0.385-0.404 0.0987-0.841 0.25-1.26-0.424-0.761-1.26-0.959-2-0.524-0.0738-0.455 0.498-0.759 0.681-1.11 0.368-0.698-0.461-0.818-0.681-1.33 0.66-0.398 0.96-0.565 0.96-1.35-0.145-0.422-0.0188-0.716 0.38-0.884 0.2-0.112 0.781-0.91 0.928-0.902 0.502 2.41 3.54 3.51 3.05 0.261 0.738 0.156 0.725 1.84 1.78 0.951 0.754-0.631 1.2-0.0775 1.97-0.515 0.651-0.565-0.26-1.81 0.0825-2.65 0.476-1.18-0.706-0.626-1.21-0.659 0.075 0.0437 0.208-1.26 0.0862-1.57-0.811-0.0925-1.97 0.622-2.7 0.26-0.03-0.604 0.961-0.846 1.22-1.31-0.0288-0.829-0.151-1.57-1.18-1.48-0.436 0.035-0.888 0.194-1.26 0.438-0.216-0.189-0.42-0.394-0.609-0.61 0.275-0.839 1.2-0.979 1.16-1.94-0.0263-0.719-0.39-1.29-1.07-1.54 0.288-1.02 0.239-1.5-0.514-2.34-0.778-0.869-3.02-1.59-3.22-2.82-0.164-1.02 4.01 0.854 4.61 0.962 1.55 0.285 3.74-1.05 1.84-2.39-0.115-0.0813-1.17-0.7-0.975-0.986 0.214-0.441 1.27 0.102 1.6 0.118 0.695 0.0275 0.468-0.258 1.16-0.0475 0.259 0.0637 0.499 0.0213 0.72-0.126 0.35-0.215 0.696-0.77 1.13-0.816 0.07 0.746-0.601 1.45-0.388 2.2 0.212 0.755 0.72 0.204 1.17 0.33-0.292 1.85 0.959 0.585 2.01 1.15 0.54 0.288 0.926 0.181 1.18-0.385 0.321-0.709 0.336-0.131 0.791-0.52 0.482-0.411 2.13 1.17 2.34-0.0763 0.0937-0.566-0.158-1.15 0.214-1.66 0.18-0.25 0.601-0.509 0.612-0.855 0.015-0.471-1.57-1.51-1.21-1.58 0.708-0.141 1.79 0.408 2.28-0.401 0.614-1.02-0.44-1.92-1.23-2.35-0.346-0.195-0.712-0.355-1.06-0.546-0.075-0.608-0.452-0.998-0.871-1.4 0.792-0.385 1.77 0.0263 2.6-0.005 1.11-0.045 1.22-1.07 2.08-1 2.14 0.16 1.28-2.4 1.24-3.61 1.16 0.122 0.991 1.93 1.8 2.49 1.29 0.891 1.58-1.21 1.42-1.97 0.962-0.045 0.879 1.64 2 1.57 0.541 0.0275 0.146-1.11 0.784-0.582 0.374 0.31 0.449 0.644 0.851 0.07 0.176-0.281 0.328-0.575 0.454-0.881 0.349-0.0537 0.661-0.186 0.939-0.4 0.489-0.424 0.178-0.912-0.241-1.26-0.57-0.465-0.241-1.2-0.958-1.57-0.35-0.02-0.798 0.42-1.13 0.261-0.0413-0.651 0.882-0.751 0.959-1.39 0.0713-0.606-0.528-0.965-0.436-1.57 0.784-0.155 1.97 2.42 2.7 1.01 0.482-0.932 0.232 0 0.871-0.0537 0.59-0.0225 0.411-0.759 0.61-1.13 0.566-1.08 2.03-1.26 0.31-2.24"/>
<path d="m-53.5 377c-0.499-0.43-0.005 1.17 0 0"/>
</g>
</svg>
