<svg xmlns="http://www.w3.org/2000/svg" viewBox="0 0 470 470"><path d="M384.61 206.394V16.104C384.61 7.225 377.383 0 368.504 0H56.755c-8.88 0-16.104 7.225-16.104 16.105V41.47L4.147 59.722C1.606 60.992 0 63.59 0 66.43s1.605 5.438 4.146 6.708L40.65 91.39v115.003c0 8.88 7.226 16.106 16.106 16.106h311.75c8.88 0 16.103-7.225 16.103-16.106zM24.27 66.43l27.236-13.617c2.54-1.27 4.146-3.868 4.146-6.708v-30c0-.61.496-1.105 1.105-1.105h311.75c.608 0 1.103.496 1.103 1.105V147.5H55.65V86.756c0-2.84-1.604-5.438-4.145-6.708L24.27 66.43zm31.38 139.964V162.5h313.96v43.894c0 .61-.496 1.106-1.105 1.106H56.755c-.608 0-1.104-.496-1.104-1.106z"/><path d="M347.11 177.5H78.15c-4.14 0-7.5 3.358-7.5 7.5s3.36 7.5 7.5 7.5h268.96c4.142 0 7.5-3.358 7.5-7.5s-3.358-7.5-7.5-7.5zM175.832 121.4c1.197.73 2.552 1.1 3.91 1.1 1.172 0 2.346-.274 3.423-.827l65.778-33.75c2.503-1.284 4.076-3.86 4.076-6.673s-1.574-5.39-4.077-6.673l-65.778-33.75c-2.326-1.194-5.104-1.09-7.333.272-2.23 1.36-3.59 3.786-3.59 6.4V115c0 2.613 1.36 5.038 3.59 6.4zm11.41-61.622L229.09 81.25l-41.85 21.472V59.778zM465.854 307.222l-36.506-18.252v-25.365c0-8.88-7.225-16.105-16.104-16.105H101.496c-8.88 0-16.105 7.225-16.105 16.105v190.29c0 8.88 7.226 16.105 16.106 16.105h311.75c8.88 0 16.103-7.225 16.103-16.106V338.892l36.505-18.253c2.54-1.27 4.146-3.868 4.146-6.71s-1.605-5.438-4.146-6.708zM413.244 455H101.496c-.61 0-1.105-.496-1.105-1.106V410h313.96v43.894c0 .61-.496 1.106-1.106 1.106zm5.25-127.452c-2.54 1.27-4.146 3.867-4.146 6.708V395H100.39V263.605c0-.61.497-1.105 1.106-1.105h311.75c.608 0 1.103.496 1.103 1.105v30c0 2.84 1.604 5.438 4.145 6.708l27.235 13.617-27.236 13.618z"/><path d="M391.85 425H122.89c-4.14 0-7.5 3.358-7.5 7.5s3.36 7.5 7.5 7.5h268.96c4.142 0 7.5-3.358 7.5-7.5s-3.36-7.5-7.5-7.5zM293.682 322.077l-65.777-33.75c-2.326-1.194-5.104-1.09-7.333.272-2.23 1.36-3.59 3.786-3.59 6.4v67.5c0 2.612 1.36 5.037 3.59 6.4 1.197.73 2.552 1.1 3.91 1.1 1.172 0 2.346-.275 3.423-.828l65.777-33.75c2.503-1.284 4.076-3.86 4.076-6.673s-1.573-5.39-4.076-6.673zm-61.7 28.145v-42.944l41.847 21.472-41.85 21.472z"/></svg>