<svg xmlns="http://www.w3.org/2000/svg" viewBox="0 0 465 465"><path d="M240 356.07V132.12c0-4.143-3.357-7.5-7.5-7.5s-7.5 3.357-7.5 7.5v223.95c0 4.144 3.357 7.5 7.5 7.5s7.5-3.356 7.5-7.5z"/><path d="M457.5 75.782c-15.856 0-35.614-6.842-56.533-14.085-26.492-9.174-56.52-19.57-87.663-19.57-36.035 0-58.02 15.79-70.115 29.037-4.525 4.956-8.03 9.922-10.69 14.327-2.657-4.404-6.163-9.37-10.687-14.326-12.097-13.247-34.08-29.038-70.115-29.038-31.143 0-61.17 10.397-87.663 19.57C43.115 68.94 23.355 75.783 7.5 75.783c-4.143 0-7.5 3.357-7.5 7.5v302.092c0 4.143 3.357 7.5 7.5 7.5 18.38 0 39.297-7.243 61.44-14.91 25.376-8.787 54.137-18.746 82.756-18.746 24.54 0 44.403 8.126 59.038 24.152 2.792 3.058 7.537 3.273 10.596.48s3.273-7.537.48-10.596c-12.097-13.246-34.08-29.037-70.114-29.037-31.143 0-61.17 10.397-87.663 19.57-17.735 6.144-34.637 11.995-49.033 13.635V90.41c16.49-1.57 34.755-7.896 53.94-14.54 25.376-8.785 54.137-18.744 82.756-18.744 57.88 0 73.025 45.962 73.634 47.894.968 3.148 3.876 5.298 7.17 5.298s6.202-2.15 7.17-5.298c.146-.48 15.383-47.894 73.634-47.894 28.62 0 57.38 9.96 82.755 18.745 19.186 6.645 37.45 12.97 53.94 14.54v287.012c-14.396-1.64-31.298-7.49-49.033-13.633-26.492-9.175-56.52-19.572-87.663-19.572-36.036 0-58.02 15.79-70.115 29.038-2.794 3.06-2.58 7.803.48 10.596s7.803 2.578 10.595-.48c14.635-16.027 34.498-24.153 59.04-24.153 28.618 0 57.38 9.958 82.754 18.744 22.144 7.668 43.06 14.91 61.44 14.91 4.143 0 7.5-3.356 7.5-7.5V83.283c0-4.142-3.357-7.5-7.5-7.5z"/><path d="M457.5 407.874c-15.856 0-35.614-6.842-56.533-14.085-26.492-9.175-56.52-19.572-87.663-19.572-33.843 0-55.29 13.928-67.796 26.596H219.49c-12.504-12.67-33.953-26.596-67.794-26.596-31.143 0-61.17 10.397-87.663 19.57-20.92 7.244-40.677 14.086-56.533 14.086-4.143 0-7.5 3.357-7.5 7.5s3.357 7.5 7.5 7.5c18.38 0 39.297-7.243 61.44-14.91 25.376-8.787 54.137-18.746 82.756-18.746 24.54 0 44.403 8.126 59.038 24.152 1.42 1.556 3.43 2.442 5.538 2.442h32.454c2.107 0 4.117-.886 5.538-2.44 14.635-16.028 34.498-24.154 59.04-24.154 28.618 0 57.38 9.96 82.754 18.745 22.145 7.668 43.062 14.91 61.44 14.91 4.144 0 7.5-3.356 7.5-7.5s-3.355-7.5-7.498-7.5z"/></svg>